<?xml version="1.0" encoding="iso-8859-1"?>
<!-- Generator: Adobe Illustrator 18.0.0, SVG Export Plug-In . SVG Version: 6.00 Build 0)  -->
<!DOCTYPE svg PUBLIC "-//W3C//DTD SVG 1.1//EN" "http://www.w3.org/Graphics/SVG/1.1/DTD/svg11.dtd">
<svg version="1.1" id="Capa_1" xmlns="http://www.w3.org/2000/svg" xmlns:xlink="http://www.w3.org/1999/xlink" x="0px" y="0px"
	 viewBox="0 0 56.006 56.006" style="enable-background:new 0 0 56.006 56.006;" xml:space="preserve">
<g>
	<circle cx="30.086" cy="47.006" r="1"/>
	<circle cx="27.086" cy="51.006" r="1"/>
	<circle cx="33.086" cy="50.006" r="1"/>
	<circle cx="37.086" cy="48.006" r="1"/>
	<path d="M14.391,44.069l-1.696,2.937l1.696,2.937h3.39l1.696-2.937l-1.696-2.937H14.391z M16.626,47.942h-1.082l-0.541-0.937
		l0.541-0.937h1.082l0.541,0.937L16.626,47.942z"/>
	<path d="M20.391,40.006l-1.696,2.937l1.696,2.937h3.39l1.696-2.937l-1.696-2.937H20.391z M22.626,43.879h-1.082l-0.541-0.937
		l0.541-0.937h1.082l0.541,0.937L22.626,43.879z"/>
	<path d="M47.627,0.293c-0.391-0.391-1.023-0.391-1.414,0l-7.85,7.85l0,0l-0.042,0.042L38.215,8.29h0L25.816,20.691l-0.105,0.082
		l-0.844,0.715l0.783,0.782c0.281,0.281,0.436,0.658,0.436,1.061s-0.155,0.779-0.437,1.061c-0.562,0.562-1.557,0.563-2.121,0
		L20.7,21.563c-0.585-0.585-0.585-1.537,0-2.122c0.585-0.583,1.537-0.582,2.136,0.015l0.783,0.783l0.7-0.858L35.672,8.006h0
		l6.291-6.291c0.391-0.391,0.391-1.023,0-1.414s-1.023-0.391-1.414,0l-7.705,7.705H15.086c-1.654,0-3,1.346-3,3v2
		c0,1.62,1.292,2.945,2.899,2.998c-0.221,0.533-0.827,0.86-2.026,1.412c-2.056,0.945-4.873,2.241-4.873,7.012v22.194
		c0,5.174,4.209,9.384,9.384,9.384h17.233c5.174,0,9.383-4.21,9.383-9.384V24.428c0-4.771-2.816-6.066-4.873-7.012
		c-1.2-0.552-1.806-0.879-2.026-1.412c1.607-0.053,2.899-1.378,2.899-2.998v-2c0-0.491-0.137-0.964-0.366-1.392l7.907-7.907
		C48.018,1.316,48.018,0.684,47.627,0.293z M23.175,26.866c0.585,0.585,0.585,1.537,0,2.122c-0.585,0.584-1.537,0.584-2.121,0
		l-2.475-2.475l-1.414-1.415c-0.001-0.001-0.002-0.001-0.003-0.002l-1.058-1.058c-0.281-0.281-0.436-0.658-0.436-1.061
		s0.155-0.779,0.437-1.061c0.281-0.281,0.658-0.437,1.06-0.437s0.779,0.155,1.061,0.437l2.475,2.475l1.414,1.414
		c0,0,0.001,0.001,0.002,0.001L23.175,26.866z M18.579,29.342c0.281,0.281,0.436,0.658,0.436,1.061s-0.155,0.779-0.437,1.061h0
		c-0.563,0.563-1.557,0.563-2.121,0l-2.828-2.828c-0.585-0.585-0.585-1.537,0-2.122c0.292-0.292,0.677-0.438,1.061-0.438
		c0.384,0,0.768,0.146,1.06,0.438l1.415,1.415L18.579,29.342z M34.703,54.006H17.47c-4.071,0-7.384-3.313-7.384-7.384v-7.965
		c1.481,0.859,2.848,1.242,4.165,1.242c2.327,0,4.496-1.186,6.858-3.006c3.524-2.718,6.001-2.554,10.192,0.676
		c2.118,1.632,3.968,2.453,5.852,2.453c1.564,0,3.152-0.573,4.932-1.709v8.31C42.086,50.693,38.774,54.006,34.703,54.006z
		 M38.377,19.232c1.907,0.878,3.708,1.706,3.708,5.195v11.456c-3.81,2.831-6.02,2.832-9.563,0.101
		c-4.17-3.213-7.74-4.449-12.634-0.676c-4.034,3.107-6.481,3.369-9.803,0.961V24.428c0-3.489,1.801-4.317,3.708-5.195
		c1.542-0.709,3.292-1.514,3.292-3.805v-1.422h-2c-0.551,0-1-0.448-1-1v-2c0-0.552,0.449-1,1-1h15.758l-7.418,7.418
		c-1.325-0.717-3.02-0.515-4.14,0.604c-0.483,0.482-0.786,1.074-0.927,1.695c-1.243-0.427-2.716-0.174-3.669,0.78
		c-0.66,0.658-1.023,1.537-1.023,2.475c0,0.418,0.083,0.821,0.221,1.201c-0.613,0.144-1.197,0.444-1.675,0.92
		c-1.364,1.365-1.364,3.585,0,4.95l2.828,2.828c0.659,0.659,1.538,1.022,2.475,1.022s1.815-0.363,2.475-1.022
		c0.466-0.466,0.775-1.044,0.921-1.672c0.388,0.141,0.793,0.221,1.2,0.221c0.896,0,1.792-0.341,2.475-1.023
		c0.659-0.659,1.022-1.538,1.022-2.475c0-0.428-0.085-0.84-0.23-1.228c0.626-0.137,1.217-0.429,1.682-0.894
		c0.659-0.658,1.022-1.537,1.022-2.475c0-0.59-0.144-1.157-0.418-1.664l7.418-7.419v1.18C35.086,17.719,36.835,18.523,38.377,19.232
		z M38.086,13.006c0,0.552-0.449,1-1,1h-1.758l2.758-2.758V13.006z"/>
</g>
<g>
</g>
<g>
</g>
<g>
</g>
<g>
</g>
<g>
</g>
<g>
</g>
<g>
</g>
<g>
</g>
<g>
</g>
<g>
</g>
<g>
</g>
<g>
</g>
<g>
</g>
<g>
</g>
<g>
</g>
</svg>
